<?xml version="1.0" encoding="UTF-8"?>
<!DOCTYPE svg PUBLIC "-//W3C//DTD SVG 1.1//EN" "http://www.w3.org/Graphics/SVG/1.1/DTD/svg11.dtd">
<svg xmlns="http://www.w3.org/2000/svg" version="1.1" width="1600px" height="900px" style="shape-rendering:geometricPrecision; text-rendering:geometricPrecision; image-rendering:optimizeQuality; fill-rule:evenodd; clip-rule:evenodd" xmlns:xlink="http://www.w3.org/1999/xlink">
<g><path style="opacity:0.999" fill="#ed2636" d="M 1249.5,426.5 C 1249.5,436.5 1249.5,446.5 1249.5,456.5C 1244.15,574.821 1199.15,674.988 1114.5,757C 1031.71,833.229 933.712,872.395 820.5,874.5C 818.5,873.167 816.5,873.167 814.5,874.5C 678.273,870.632 566.773,816.632 480,712.5C 399.336,606.812 370.17,488.312 392.5,357C 427.443,206.416 515.776,100.416 657.5,39C 679.389,30.6105 701.723,23.6105 724.5,18C 867.186,-9.08548 993.52,23.5812 1103.5,116C 1195.05,198.958 1243.72,302.458 1249.5,426.5 Z M 656.5,208.5 C 676.621,207.611 688.621,217.278 692.5,237.5C 692.223,242.035 691.889,246.535 691.5,251C 692.33,292.096 692.83,333.262 693,374.5C 696.035,388.93 704.869,395.43 719.5,394C 728.892,390.42 734.392,383.587 736,373.5C 735.923,355.826 735.256,338.159 734,320.5C 731.639,300.142 729.139,279.809 726.5,259.5C 728.063,234.766 741.063,224.266 765.5,228C 775.09,231.923 781.59,238.756 785,248.5C 795.741,310.812 798.741,373.479 794,436.5C 785.257,480.884 761.423,514.384 722.5,537C 711.026,547.115 703.526,559.615 700,574.5C 698.568,599.396 697.068,623.896 695.5,648C 698.596,667.453 690.929,681.786 672.5,691C 657.894,694.798 645.727,690.964 636,679.5C 633.427,675.455 631.427,671.122 630,666.5C 627.842,636.539 626.175,606.539 625,576.5C 622.19,558.714 614.024,543.881 600.5,532C 556.893,504.311 533.06,464.478 529,412.5C 527.314,357.804 530.981,303.471 540,249.5C 546.079,231.046 558.579,223.879 577.5,228C 593.106,235.087 599.939,247.254 598,264.5C 593.351,291.834 590.185,319 588.5,346C 588.056,357.021 588.556,368.187 590,379.5C 595.618,392.226 605.118,396.726 618.5,393C 625.478,389.552 629.978,384.052 632,376.5C 632.333,329.167 632.667,281.833 633,234.5C 636.047,221.343 643.88,212.676 656.5,208.5 Z M 943.5,215.5 C 944.609,215.443 945.609,215.11 946.5,214.5C 983.387,202.347 1015.22,210.347 1042,238.5C 1067.48,268.799 1084.48,303.465 1093,342.5C 1099.73,370.112 1102.73,398.112 1102,426.5C 1098.49,460.693 1083.99,489.193 1058.5,512C 1049.04,519.122 1039.88,526.622 1031,534.5C 1022.3,544.91 1017.3,556.91 1016,570.5C 1014.65,601.86 1012.98,633.193 1011,664.5C 1006.34,681.659 995.177,690.993 977.5,692.5C 958.39,691.222 946.89,681.222 943,662.5C 941.306,630.837 939.639,599.17 938,567.5C 935.224,550.78 927.391,536.947 914.5,526C 868.085,494.992 847.585,451.492 853,395.5C 856.656,340.857 873.989,291.19 905,246.5C 915.66,233.327 928.493,222.994 943.5,215.5 Z"/></g>
<g><path style="opacity:0.082" fill="#931c25" d="M 946.5,214.5 C 945.609,215.11 944.609,215.443 943.5,215.5C 944.221,213.618 945.221,213.285 946.5,214.5 Z"/></g>
<g><path style="opacity:0.082" fill="#c9212e" d="M 1249.5,426.5 C 1251,431.245 1251.67,436.245 1251.5,441.5C 1251.67,446.755 1251,451.755 1249.5,456.5C 1249.5,446.5 1249.5,436.5 1249.5,426.5 Z"/></g>
<g><path style="opacity:0.282" fill="#6b181e" d="M 814.5,874.5 C 816.5,873.167 818.5,873.167 820.5,874.5C 818.611,875.742 816.611,875.742 814.5,874.5 Z"/></g>
</svg>
