<?xml version="1.0" encoding="UTF-8"?>
<!DOCTYPE svg PUBLIC "-//W3C//DTD SVG 1.1//EN" "http://www.w3.org/Graphics/SVG/1.1/DTD/svg11.dtd">
<svg xmlns="http://www.w3.org/2000/svg" version="1.1" width="3840px" height="2160px" style="shape-rendering:geometricPrecision; text-rendering:geometricPrecision; image-rendering:optimizeQuality; fill-rule:evenodd; clip-rule:evenodd" xmlns:xlink="http://www.w3.org/1999/xlink">
<g><path style="opacity:1" fill="#231f1f" d="M 2175.5,698.5 C 2216.5,698.5 2257.5,698.5 2298.5,698.5C 2298.5,730.5 2298.5,762.5 2298.5,794.5C 2266.83,794.333 2235.16,794.5 2203.5,795C 2191.03,795.39 2182.03,801.057 2176.5,812C 2175.28,825.592 2175.28,839.426 2176.5,853.5C 2224.4,852.973 2272.24,852.64 2320,852.5C 2320.41,852.957 2320.91,853.291 2321.5,853.5C 2322.5,885.16 2322.83,916.826 2322.5,948.5C 2273.5,948.5 2224.5,948.5 2175.5,948.5C 2175.5,1049.83 2175.5,1151.17 2175.5,1252.5C 2138.26,1252.83 2101.09,1252.5 2064,1251.5C 2063.5,1150.17 2063.33,1048.83 2063.5,947.5C 2032.17,947.5 2000.83,947.5 1969.5,947.5C 1969.5,915.833 1969.5,884.167 1969.5,852.5C 2000.68,852.481 2031.68,852.481 2062.5,852.5C 2063.33,836.177 2063.83,819.844 2064,803.5C 2067.52,760.106 2088.36,729.272 2126.5,711C 2142.44,704.765 2158.78,700.598 2175.5,698.5 Z"/></g>
<g><path style="opacity:1" fill="#231f1f" d="M 3649.5,701.5 C 3685.24,702.003 3720.91,702.336 3756.5,702.5C 3757.5,885.832 3757.83,1069.17 3757.5,1252.5C 3722.83,1252.5 3688.17,1252.5 3653.5,1252.5C 3653.67,1239.83 3653.5,1227.16 3653,1214.5C 3624.69,1241.06 3590.86,1257.23 3551.5,1263C 3523.98,1265.82 3496.65,1264.82 3469.5,1260C 3401.92,1244.07 3353.08,1204.91 3323,1142.5C 3300.19,1083.89 3299.69,1025.39 3321.5,967C 3355.95,893.27 3413.61,851.603 3494.5,842C 3540.36,836.971 3583.36,845.638 3623.5,868C 3631.08,872.617 3638.08,877.95 3644.5,884C 3645.72,884.563 3646.72,884.23 3647.5,883C 3647.17,823.333 3646.83,763.667 3646.5,704C 3647.57,703.148 3648.57,702.315 3649.5,701.5 Z M 3511.5,940.5 C 3523.5,940.333 3535.5,940.5 3547.5,941C 3575.15,942.811 3599.81,953.144 3621.5,972C 3636.04,986.222 3644.71,1003.06 3647.5,1022.5C 3647.5,1041.5 3647.5,1060.5 3647.5,1079.5C 3646.2,1090.71 3643.03,1101.38 3638,1111.5C 3619.64,1140.13 3593.48,1157.29 3559.5,1163C 3520.86,1172.25 3485.86,1164.92 3454.5,1141C 3417.79,1104.83 3407.29,1061.99 3423,1012.5C 3440.1,971.141 3469.6,947.141 3511.5,940.5 Z"/></g>
<g><path style="opacity:1" fill="#ed2736" d="M 427.5,737.5 C 554.362,736.514 656.195,786.514 733,887.5C 798.629,983.007 816.629,1087.01 787,1199.5C 754.688,1305.44 688.188,1382.27 587.5,1430C 506.075,1465.12 422.409,1470.12 336.5,1445C 220.392,1405.55 141.726,1328.88 100.5,1215C 67.4746,1108.22 78.8079,1006.55 134.5,910C 202.895,804.412 300.562,746.912 427.5,737.5 Z"/></g>
<g><path style="opacity:1" fill="#010000" d="M 1317.5,887.5 C 1317.56,888.043 1317.89,888.376 1318.5,888.5C 1319.5,873.181 1319.83,857.848 1319.5,842.5C 1321.74,842.795 1323.74,842.461 1325.5,841.5C 1358.5,841.5 1391.5,841.5 1424.5,841.5C 1424.67,982.5 1424.5,1123.5 1424,1264.5C 1417.81,1342.86 1378.98,1399.03 1307.5,1433C 1260.51,1450.57 1212.01,1456.07 1162,1449.5C 1109.35,1440.94 1062.51,1419.44 1021.5,1385C 1016.65,1380.32 1011.98,1375.49 1007.5,1370.5C 1016.71,1359.12 1027.05,1348.95 1038.5,1340C 1051.05,1325.61 1064.72,1312.45 1079.5,1300.5C 1124.86,1341.77 1176.69,1356.44 1235,1344.5C 1264.07,1339.74 1287.07,1324.74 1304,1299.5C 1307.97,1290.56 1311.47,1281.56 1314.5,1272.5C 1315.27,1271.74 1315.77,1270.74 1316,1269.5C 1316.5,1264.85 1316.67,1260.18 1316.5,1255.5C 1316.38,1243.38 1316.04,1230.04 1315.5,1215.5C 1272.63,1253.28 1222.63,1268.45 1165.5,1261C 1086.93,1250.41 1030.09,1209.24 995,1137.5C 987.812,1120.47 982.645,1103.13 979.5,1085.5C 981.133,1083.61 980.8,1082.11 978.5,1081C 978.833,1079.33 979.167,1077.67 979.5,1076C 971.187,1005.78 993.854,945.112 1047.5,894C 1068.52,876.349 1091.52,862.682 1116.5,853C 1168.56,835.578 1219.89,836.578 1270.5,856C 1287.61,864.54 1303.28,875.04 1317.5,887.5 Z M 1192.5,940.5 C 1200.53,940.703 1208.53,940.703 1216.5,940.5C 1255.46,944.191 1285.46,963.025 1306.5,997C 1308.49,1002.71 1310.32,1008.88 1312,1015.5C 1313.56,1037.47 1313.89,1059.47 1313,1081.5C 1311.14,1092.67 1308.14,1102.67 1304,1111.5C 1282.15,1142.72 1251.98,1159.55 1213.5,1162C 1179.03,1167.05 1148.36,1158.72 1121.5,1137C 1091.51,1107.15 1080.35,1071.32 1088,1029.5C 1095.86,985.586 1122.19,957.253 1167,944.5C 1167.33,944.833 1167.67,945.167 1168,945.5C 1176.05,943.242 1184.22,941.575 1192.5,940.5 Z"/></g>
<g><path style="opacity:1" fill="#010000" d="M 1737.5,1263.5 C 1721.83,1262.17 1706.17,1262.17 1690.5,1263.5C 1632.09,1257.9 1582.59,1234.24 1542,1192.5C 1498.01,1140.95 1482.34,1079.29 1495,1007.5C 1511.12,938.672 1551.62,889.505 1616.5,860C 1673.77,838.249 1731.93,835.749 1791,852.5C 1838.61,868.815 1876.61,897.482 1905,938.5C 1938.37,994.448 1946.04,1053.78 1928,1116.5C 1904.58,1186.88 1856.08,1233.04 1782.5,1255C 1767.66,1258.92 1752.66,1261.75 1737.5,1263.5 Z M 1700.5,940.5 C 1709.5,941.824 1718.5,941.824 1727.5,940.5C 1770.47,947.904 1800.97,971.904 1819,1012.5C 1822.21,1021.55 1824.38,1030.22 1825.5,1038.5C 1825.05,1039.87 1824.71,1041.37 1824.5,1043C 1825.15,1051.6 1825.82,1060.1 1826.5,1068.5C 1826.05,1069.46 1825.38,1070.29 1824.5,1071C 1824.83,1072.67 1825.17,1074.33 1825.5,1076C 1808.54,1139.25 1767.21,1168.92 1701.5,1165C 1648.01,1156.18 1615.18,1125.34 1603,1072.5C 1599.61,1051.63 1601.61,1031.3 1609,1011.5C 1622.9,978.934 1646.57,956.601 1680,944.5C 1680.33,944.833 1680.67,945.167 1681,945.5C 1687.44,943.25 1693.94,941.583 1700.5,940.5 Z"/></g>
<g><path style="opacity:1" fill="#231f1f" d="M 2531.5,841.5 C 2575.15,839.131 2616.82,846.964 2656.5,865C 2715.95,895.411 2753.12,942.911 2768,1007.5C 2778.47,1064.73 2769.8,1116.73 2742,1163.5C 2708.98,1213.79 2662.81,1245.29 2603.5,1258C 2538.25,1271.44 2476.91,1261.44 2419.5,1228C 2353.13,1181.42 2321.96,1117.58 2326,1036.5C 2335.55,948.736 2380.71,888.569 2461.5,856C 2484.15,848.703 2507.48,843.87 2531.5,841.5 Z M 2539.5,939.5 C 2563.15,938.422 2585.15,943.256 2605.5,954C 2650.25,984.439 2668.08,1026.94 2659,1081.5C 2643.65,1134.53 2608.32,1162.53 2553,1165.5C 2488,1162 2449.16,1128.33 2436.5,1064.5C 2436.69,1056.26 2436.69,1048.1 2436.5,1040C 2444.24,994.068 2469.74,962.234 2513,944.5C 2513.33,944.833 2513.67,945.167 2514,945.5C 2522.39,942.527 2530.89,940.527 2539.5,939.5 Z"/></g>
<g><path style="opacity:1" fill="#231f1f" d="M 3022.5,841.5 C 3064.51,839.469 3104.84,846.636 3143.5,863C 3210.96,897.007 3250.13,950.84 3261,1024.5C 3268.81,1094.97 3248.31,1154.8 3199.5,1204C 3198.5,1204.33 3197.5,1204.67 3196.5,1205C 3173.66,1226.77 3146.99,1242.44 3116.5,1252C 3043.4,1273.81 2974.07,1265.48 2908.5,1227C 2844.47,1182.1 2813.63,1120.6 2816,1042.5C 2822.62,955.174 2866.12,893.674 2946.5,858C 2971.29,849.298 2996.62,843.798 3022.5,841.5 Z M 3029.5,939.5 C 3083.34,938.189 3121.51,962.189 3144,1011.5C 3160.62,1059.49 3151.46,1101.65 3116.5,1138C 3077.78,1168.07 3035.78,1173.41 2990.5,1154C 2945.6,1129.7 2924.44,1091.87 2927,1040.5C 2934.8,994.062 2960.13,962.062 3003,944.5C 3003.33,944.833 3003.67,945.167 3004,945.5C 3012.37,942.529 3020.87,940.529 3029.5,939.5 Z"/></g>
<g><path style="opacity:0.714" fill="#2f1c1d" d="M 1325.5,841.5 C 1323.74,842.461 1321.74,842.795 1319.5,842.5C 1319.83,857.848 1319.5,873.181 1318.5,888.5C 1317.89,888.376 1317.56,888.043 1317.5,887.5C 1318.5,872.342 1318.83,857.009 1318.5,841.5C 1320.83,841.5 1323.17,841.5 1325.5,841.5 Z"/></g>
<g><path style="opacity:1" fill="#fffefe" d="M 575.5,897.5 C 596.747,898.755 615.247,908.088 631,925.5C 642.035,939.852 651.368,955.186 659,971.5C 676.022,1015.88 680.856,1059.38 673.5,1102C 667.277,1120.31 656.277,1136.81 640.5,1151.5C 632.799,1157.02 625.466,1163.02 618.5,1169.5C 612.142,1177.9 608.142,1187.07 606.5,1197C 605.632,1206.77 605.632,1215.77 606.5,1224C 605.892,1234.7 604.892,1245.37 603.5,1256C 604.103,1263.01 604.436,1269.34 604.5,1275C 598.891,1291.1 588.391,1299.26 573,1299.5C 558.244,1297.07 549.411,1287.9 546.5,1272C 546.833,1269.67 547.167,1267.33 547.5,1265C 546.833,1261 546.167,1257 545.5,1253C 545.434,1249.51 545.767,1246.17 546.5,1243C 545.833,1238.67 545.167,1234.33 544.5,1230C 544.634,1219.94 544.634,1209.61 544.5,1199C 542.796,1185.64 537.129,1174.31 527.5,1165C 483.676,1134.24 466.342,1093.91 475.5,1044C 475.167,1043 474.833,1042 474.5,1041C 475.167,1039.67 475.833,1038.33 476.5,1037C 479.687,1006.7 489.521,976.202 506,945.5C 517.701,926.771 532.867,912.604 551.5,903C 559.463,900.403 567.463,898.57 575.5,897.5 Z"/></g>
<g><path style="opacity:1" fill="#fffdfd" d="M 313.5,898.5 C 327.894,897.377 338.227,904.877 344.5,921C 344.824,958.865 344.49,996.865 343.5,1035C 344.308,1037.09 345.308,1039.09 346.5,1041C 346.167,1041.33 345.833,1041.67 345.5,1042C 357.68,1055.31 368.68,1054.31 378.5,1039C 378.995,1026.62 378.995,1013.96 378.5,1001C 377.833,998 377.167,995 376.5,992C 376.833,991 377.167,990 377.5,989C 376.833,986.667 376.167,984.333 375.5,982C 375.81,978.597 375.81,974.93 375.5,971C 373.539,960.748 371.872,951.081 370.5,942C 376.591,919.326 389.924,911.659 410.5,919C 413.63,921.128 416.463,923.628 419,926.5C 420.496,929.649 421.996,932.816 423.5,936C 423.167,936.333 422.833,936.667 422.5,937C 423.922,941.056 424.922,945.056 425.5,949C 425.167,950 424.833,951 424.5,952C 425.167,953.333 425.833,954.667 426.5,956C 426.167,957 425.833,958 425.5,959C 426.404,963.39 427.404,967.723 428.5,972C 428.167,973 427.833,974 427.5,975C 428.167,977.333 428.833,979.667 429.5,982C 429.167,983.667 428.833,985.333 428.5,987C 430.029,990.973 430.362,994.639 429.5,998C 430.096,1001.72 430.762,1005.38 431.5,1009C 431.445,1030.78 431.445,1052.78 431.5,1075C 427.926,1108.82 412.926,1137.15 386.5,1160C 372.44,1166.73 361.607,1176.89 354,1190.5C 351.953,1196.3 350.12,1202.14 348.5,1208C 348.616,1209.27 348.949,1210.6 349.5,1212C 348.402,1225.94 347.402,1239.94 346.5,1254C 346.238,1257.23 346.572,1260.23 347.5,1263C 346.833,1266.33 346.167,1269.67 345.5,1273C 345.833,1274 346.167,1275 346.5,1276C 342.281,1288.39 334.281,1296.23 322.5,1299.5C 305.843,1301.38 294.843,1293.55 289.5,1276C 289.833,1275 290.167,1274 290.5,1273C 289.801,1269.2 289.135,1265.37 288.5,1261.5C 289.114,1258.02 289.447,1254.85 289.5,1252C 288.833,1248 288.167,1244 287.5,1240C 287.687,1229.88 287.687,1219.55 287.5,1209C 285.415,1196.11 280.248,1184.28 272,1173.5C 262.563,1166.86 253.397,1159.86 244.5,1152.5C 225.231,1133.99 212.564,1111.99 206.5,1086.5C 206.709,1085.91 207.043,1085.41 207.5,1085C 206.5,1081.33 205.5,1077.67 204.5,1074C 205.141,1055.95 205.141,1038.12 204.5,1020.5C 205.146,1014.64 205.813,1008.8 206.5,1003C 205.799,1000.21 205.466,997.548 205.5,995C 207.126,989.364 207.46,984.364 206.5,980C 207.393,975.977 208.393,971.977 209.5,968C 208.978,967.439 208.645,966.772 208.5,966C 209.3,959.642 210.3,953.642 211.5,948C 211.167,947.667 210.833,947.333 210.5,947C 211.723,940.945 213.556,934.778 216,928.5C 225.198,916.167 236.698,912.833 250.5,918.5C 263.738,928.34 267.738,940.84 262.5,956C 262.833,956.333 263.167,956.667 263.5,957C 262.833,958.667 262.167,960.333 261.5,962C 261.833,962.333 262.167,962.667 262.5,963C 261.227,965.193 260.894,967.36 261.5,969.5C 260.758,974.327 259.758,979.16 258.5,984C 258.833,985 259.167,986 259.5,987C 258.72,994.027 257.72,1001.03 256.5,1008C 256.878,1017.23 256.878,1027.57 256.5,1039C 262.981,1052.63 272.981,1055.46 286.5,1047.5C 289.146,1044.38 291.146,1040.88 292.5,1037C 291.771,998.866 291.437,960.532 291.5,922C 294.313,910.387 301.647,902.554 313.5,898.5 Z"/></g>
<g><path style="opacity:0.2" fill="#431e20" d="M 1192.5,940.5 C 1200.5,939.167 1208.5,939.167 1216.5,940.5C 1208.53,940.703 1200.53,940.703 1192.5,940.5 Z"/></g>
<g><path style="opacity:0.2" fill="#451e21" d="M 1700.5,940.5 C 1709.5,939.167 1718.5,939.167 1727.5,940.5C 1718.5,941.824 1709.5,941.824 1700.5,940.5 Z"/></g>
<g><path style="opacity:0.2" fill="#3f1d20" d="M 1825.5,1038.5 C 1826.49,1048.32 1826.83,1058.32 1826.5,1068.5C 1825.82,1060.1 1825.15,1051.6 1824.5,1043C 1824.71,1041.37 1825.05,1039.87 1825.5,1038.5 Z"/></g>
<g><path style="opacity:0.976" fill="#4f1c1e" d="M 1690.5,1263.5 C 1706.17,1262.17 1721.83,1262.17 1737.5,1263.5C 1721.83,1264.83 1706.17,1264.83 1690.5,1263.5 Z"/></g>
<g><path style="opacity:0.976" fill="#4e1c1e" d="M 1316.5,1255.5 C 1316.67,1260.18 1316.5,1264.85 1316,1269.5C 1315.77,1270.74 1315.27,1271.74 1314.5,1272.5C 1314.82,1266.65 1315.48,1260.98 1316.5,1255.5 Z"/></g>
</svg>
